<?xml version="1.0" encoding="UTF-8" standalone="no"?>
<svg version="1.1" width="1000" height="1000" xmlns="http://www.w3.org/2000/svg" xmlns:xlink="http://www.w3.org/1999/xlink">
    <circle cx="500" cy="500" r="465" fill="none" stroke="#ed1b24" stroke-width="70" />
    <circle cx="258" cy="370" r="84" fill="#231f20" />
    <path fill="#231f20" d="M 526,674 L 567,819 Q 580,867 540,880 Q 509,884 495,860 L 442,675 Q 434,650 449,633 L 572,498 L 404,495 L 324,659 Q 312,685 286,684 Q 259,685 244,660 L 166,526 Q 158,500 180,483 Q 210,471 227,495 L 278,585 L 490,137 Q 507,106 538,113 Q 560,117 571,138 L 644,266 Q 658,296 634,313 Q 605,325 590,304 L 536,212 L 478,336 L 635,354 Q 718,362 741,405 Q 756,426 745,476 L 712,599 L 794,538 Q 820,518 846,536 Q 869,556 859,585 Q 853,597 845,603 L 672,731 Q 639,757 612,733 Q 598,721 602,687 L 611,603 Z"></path>
</svg>